<svg width="32" height="32" viewBox="0 0 32 32" fill="none" xmlns="http://www.w3.org/2000/svg">
<g clip-path="url(#clip0_447_1496)">
<path d="M23.8993 0.192269C21.9571 0.288423 20.0895 1.16342 18.6457 2.65381L12.9822 8.49996C13.8718 7.57689 17.1739 8.2115 17.975 9.03842L21.4029 5.49996C22.162 4.71631 23.1122 4.23554 24.0856 4.19227C24.7469 4.15862 25.6831 4.30285 26.5074 5.15381C27.2759 5.94708 27.4389 6.87015 27.4389 7.49996C27.4389 8.55285 26.9732 9.60092 26.1721 10.423L20.2106 16.6153C18.7109 18.1634 16.4287 18.2884 15.106 16.923C14.3515 16.1442 13.1079 16.1394 12.3488 16.923C11.5896 17.7067 11.5896 18.9855 12.3488 19.7692C13.7088 21.173 15.4972 21.8846 17.3416 21.8846C19.335 21.8846 21.3703 21.0432 22.9305 19.423L28.9293 13.2692C30.4523 11.7019 31.3139 9.60573 31.3139 7.49996C31.3139 5.54323 30.5967 3.68265 29.2646 2.30765C27.8395 0.836501 25.9253 0.0961154 23.8993 0.192269ZM14.6589 10.1153C12.6655 10.1153 10.5976 10.9615 9.03268 12.5769L3.07114 18.7307C1.54815 20.298 0.686523 22.3942 0.686523 24.5C0.686523 26.4567 1.40377 28.3173 2.7358 29.6923C4.16098 31.1634 6.0752 31.9038 8.10119 31.8077C10.0433 31.7115 11.911 30.8365 13.3548 29.3461L19.0183 23.5C18.124 24.423 14.8265 23.7884 14.0255 22.9615L10.5976 26.5C9.83842 27.2836 8.8883 27.7596 7.91489 27.8077C7.25353 27.8413 6.31738 27.6971 5.49301 26.8461C4.72453 26.0528 4.56152 25.125 4.56152 24.5C4.56152 23.4471 5.02727 22.399 5.82835 21.5769L11.7899 15.3846C13.2896 13.8365 15.5717 13.7163 16.8945 15.0769C17.6536 15.8605 18.8972 15.8605 19.6517 15.0769C20.4108 14.2932 20.4108 13.0144 19.6517 12.2307C18.2917 10.8269 16.4986 10.1153 14.6589 10.1153Z" fill="white"/>
</g>
<defs>
<clipPath id="clip0_447_1496">
<rect width="31" height="32" fill="white" transform="translate(0.5)"/>
</clipPath>
</defs>
</svg>
