<svg width="40" height="40" viewBox="0 0 40 40" fill="none" xmlns="http://www.w3.org/2000/svg">
<path d="M14.5835 3.33337C12.6746 3.33337 11.1371 4.81238 10.9181 6.66671H8.75016C7.15437 6.66671 5.8335 7.98758 5.8335 9.58337V14.5834C5.8335 17.56 8.27355 20 11.2502 20H11.4243C12.5466 23.4353 15.4997 25.9092 19.1668 26.4128V29.1667H16.2502C13.2735 29.1667 10.8335 31.6068 10.8335 34.5834V35.4167C10.8335 35.7482 10.9652 36.0661 11.1996 36.3006C11.4341 36.535 11.752 36.6667 12.0835 36.6667H28.7502C29.0817 36.6667 29.3996 36.535 29.634 36.3006C29.8684 36.0661 30.0001 35.7482 30.0002 35.4167V34.5834C30.0002 31.6068 27.5601 29.1667 24.5835 29.1667H21.6668V26.4128C25.334 25.9092 28.287 23.4353 29.4093 20H29.5835C32.5601 20 35.0002 17.56 35.0002 14.5834V9.58337C35.0002 7.98758 33.6793 6.66671 32.0835 6.66671H29.9155C29.6965 4.81238 28.1591 3.33337 26.2502 3.33337H14.5835ZM14.5835 5.83337H26.2502C26.9556 5.83337 27.5002 6.37796 27.5002 7.08337V7.71163C27.4781 7.84582 27.4781 7.98271 27.5002 8.1169V17.0834C27.5002 20.9849 24.3799 24.1115 20.4884 24.1521C20.4407 24.1493 20.3929 24.1493 20.3452 24.1521C16.4537 24.1115 13.3335 20.9849 13.3335 17.0834V8.12179C13.3555 7.98759 13.3555 7.8507 13.3335 7.71651V7.08337C13.3335 6.37796 13.8781 5.83337 14.5835 5.83337ZM8.75016 9.16671H10.8335V17.0834C10.8335 17.2067 10.8988 17.3094 10.9035 17.4317C9.45371 17.2555 8.3335 16.085 8.3335 14.5834V9.58337C8.3335 9.3375 8.50429 9.16671 8.75016 9.16671ZM30.0002 9.16671H32.0835C32.3294 9.16671 32.5002 9.3375 32.5002 9.58337V14.5834C32.5002 16.085 31.3799 17.2555 29.9302 17.4317C29.9348 17.3094 30.0002 17.2067 30.0002 17.0834V9.16671ZM16.2502 31.6667H24.5835C26.0602 31.6667 27.2101 32.7526 27.4172 34.1667H13.4165C13.6235 32.7526 14.7735 31.6667 16.2502 31.6667Z" fill="#F8F8F8"/>
</svg>
