<svg width="40" height="40" viewBox="0 0 40 40" fill="none" xmlns="http://www.w3.org/2000/svg">
<path d="M20 4.16663L5 10.8333V15H8.33333V31.6666H5V35H35V31.6666H31.6667V15H35V10.8333L20 4.16663ZM20 7.81571L28.6686 11.6666H28.3333V15V31.6666H11.6667V15V11.6666H11.3314L20 7.81571ZM19.5215 9.41728V11.7968C18.9565 11.8685 15.7943 12.4626 15.7943 16.2793C15.7943 21.8476 21.5592 20.201 21.5592 23.916C21.5592 25.776 20.3557 25.8203 20.1107 25.8203C19.8873 25.8203 18.4212 25.9391 18.4212 23.0924H15.2702C15.2702 27.9124 18.7671 28.2942 19.2871 28.3658V30.5826H20.957V28.3658C21.5204 28.2958 24.707 27.7732 24.707 23.8932C24.707 18.5499 18.9437 19.5722 18.9421 16.2955C18.9421 14.4172 19.9752 14.3587 20.1986 14.3587C20.6069 14.3587 21.5788 14.7168 21.5788 17.0052H24.7298C24.7298 12.6268 21.7362 11.9441 21.2012 11.8424V9.41728H19.5215Z" fill="white"/>
</svg>
