<svg width="42" height="40" viewBox="0 0 42 40" fill="none" xmlns="http://www.w3.org/2000/svg">
<path d="M29.9287 5.00001C29.7335 5.00489 29.5283 5.02931 29.3281 5.07813L8.50781 10.4297C6.82617 10.8594 5.625 12.3633 5.625 14.0625V31.25C5.625 33.3057 7.36169 35 9.46875 35H32.5312C34.6383 35 36.375 33.3057 36.375 31.25V15C36.375 12.9443 34.6383 11.25 32.5312 11.25H15.3945L29.9688 7.50001V10H32.5312V7.50001C32.5312 6.09376 31.3051 4.98048 29.9287 5.00001ZM9.46875 13.75H32.5312C33.257 13.75 33.8125 14.292 33.8125 15V31.25C33.8125 31.958 33.257 32.5 32.5312 32.5H9.46875C8.74304 32.5 8.1875 31.958 8.1875 31.25V15C8.1875 14.292 8.74304 13.75 9.46875 13.75ZM29.3281 21.25C28.2671 21.25 27.4062 22.0899 27.4062 23.125C27.4062 24.1602 28.2671 25 29.3281 25C30.3892 25 31.25 24.1602 31.25 23.125C31.25 22.0899 30.3892 21.25 29.3281 21.25Z" fill="white"/>
</svg>
