<svg width="18" height="20" viewBox="0 0 18 20" fill="none" xmlns="http://www.w3.org/2000/svg">
<path d="M11.6925 8.33333C11.4221 9.02159 10.9894 9.61587 10.4401 10.0533C9.89076 10.4908 9.24524 10.7552 8.5718 10.8185C7.89836 10.8818 7.22203 10.7417 6.61434 10.4131C6.00666 10.0844 5.4902 9.57941 5.1196 8.95143C4.74901 8.32345 4.53804 7.59585 4.50901 6.8456C4.47999 6.09535 4.63399 5.35033 4.95472 4.68933C5.27545 4.02833 5.75099 3.47592 6.33106 3.09054C6.91112 2.70516 7.57414 2.50112 8.24998 2.5C8.76558 2.50062 9.27576 2.61683 9.74998 2.84167" stroke="white" stroke-width="2" stroke-linecap="round" stroke-linejoin="round"/>
<path d="M15.75 4.16667H12.75M14.25 2.5V5.83333M9 10.8333H7.5C6.10761 10.8333 4.77226 11.4479 3.78769 12.5419C2.80312 13.6358 2.25 15.1196 2.25 16.6667C2.25 16.8877 2.32902 17.0996 2.46967 17.2559C2.61032 17.4122 2.80109 17.5 3 17.5H13.5C13.6989 17.5 13.8897 17.4122 14.0303 17.2559C14.171 17.0996 14.25 16.8877 14.25 16.6667C14.25 15.1196 13.6969 13.6358 12.7123 12.5419C11.7277 11.4479 10.3924 10.8333 9 10.8333Z" stroke="white" stroke-width="2" stroke-linecap="round" stroke-linejoin="round"/>
</svg>
