<svg width="22" height="22" viewBox="0 0 22 22" fill="none" xmlns="http://www.w3.org/2000/svg">
<path d="M7.33333 14.6667H13.9913C18.1049 14.6667 18.7305 12.0824 19.4892 8.31332C19.7081 7.22619 19.8176 6.68262 19.5544 6.32048C19.2912 5.95833 18.7868 5.95833 17.7779 5.95833H5.5" stroke="white" stroke-opacity="0.8" stroke-width="1.25" stroke-linecap="round"/>
<path d="M7.33329 14.6667L4.93046 3.22202C4.72643 2.40587 3.99312 1.83333 3.15187 1.83333H2.29163" stroke="white" stroke-opacity="0.8" stroke-width="1.25" stroke-linecap="round"/>
<path d="M8.14 14.6667H7.76286C6.51312 14.6667 5.5 15.722 5.5 17.0238C5.5 17.2408 5.66885 17.4167 5.87714 17.4167H16.0417" stroke="white" stroke-opacity="0.8" stroke-width="1.25" stroke-linecap="round" stroke-linejoin="round"/>
<path d="M9.625 20.1667C10.3844 20.1667 11 19.5511 11 18.7917C11 18.0323 10.3844 17.4167 9.625 17.4167C8.86561 17.4167 8.25 18.0323 8.25 18.7917C8.25 19.5511 8.86561 20.1667 9.625 20.1667Z" stroke="white" stroke-opacity="0.8" stroke-width="1.25"/>
<path d="M16.0416 20.1667C16.801 20.1667 17.4166 19.5511 17.4166 18.7917C17.4166 18.0323 16.801 17.4167 16.0416 17.4167C15.2822 17.4167 14.6666 18.0323 14.6666 18.7917C14.6666 19.5511 15.2822 20.1667 16.0416 20.1667Z" stroke="white" stroke-opacity="0.8" stroke-width="1.25"/>
</svg>
