<svg width="26" height="22" viewBox="0 0 26 22" fill="none" xmlns="http://www.w3.org/2000/svg">
<path d="M23.4715 2.40246C20.7525 -0.315753 16.3293 -0.315753 13.6111 2.40246L12.9798 3.03345L12.3488 2.40246C9.63056 -0.31612 5.20702 -0.31612 2.48881 2.40246C-0.17422 5.06549 -0.191513 9.28667 2.4487 12.2216C4.85676 14.8975 11.9588 20.6787 12.2601 20.9233C12.4647 21.0896 12.7108 21.1706 12.9555 21.1706C12.9636 21.1706 12.9717 21.1706 12.9794 21.1702C13.2325 21.182 13.4875 21.0952 13.6987 20.9233C14 20.6787 21.1028 14.8975 23.5116 12.2212C26.1514 9.28667 26.1341 5.06549 23.4715 2.40246ZM21.8706 10.7447C19.9931 12.8305 14.8323 17.1323 12.9794 18.6588C11.1265 17.1326 5.96678 12.8312 4.08964 10.7451C2.24782 8.69799 2.23052 5.78257 4.04954 3.96356C4.97854 3.03492 6.19857 2.57024 7.41861 2.57024C8.63864 2.57024 9.85867 3.03455 10.7877 3.96356L12.1755 5.35137C12.3407 5.51656 12.5489 5.61517 12.7675 5.64975C13.1221 5.72591 13.507 5.62694 13.7829 5.35173L15.1715 3.96356C16.066 3.07172 17.2776 2.57091 18.5407 2.57091C19.8039 2.57091 21.0155 3.07172 21.91 3.96356C23.729 5.78257 23.7117 8.69799 21.8706 10.7447Z" fill="black"/>
</svg>
