<svg width="19" height="22" viewBox="0 0 19 22" fill="none" xmlns="http://www.w3.org/2000/svg">
<g clip-path="url(#clip0_1_191)">
<path d="M17.0263 0.0615234H1.69776C0.462247 0.0615234 0.00062561 0.52612 0.00062561 1.77643V16.869C0.00062561 17.0125 0.00741416 17.1423 0.0209913 17.2652C0.0481454 17.5385 0.054934 17.805 0.30611 18.1056C0.333264 18.133 0.591229 18.3311 0.591229 18.3311C0.727 18.3994 0.82204 18.4472 0.978177 18.5156L8.52025 21.6994C8.91399 21.8771 9.07691 21.9522 9.36203 21.9454C9.64715 21.9522 9.81008 21.8839 10.2038 21.6994L17.7459 18.5156C17.902 18.4541 17.9971 18.3994 18.1328 18.3311C18.1328 18.3311 18.3908 18.1398 18.418 18.1056C18.6691 17.805 18.6759 17.5385 18.7031 17.2652C18.7167 17.1423 18.7234 17.0125 18.7234 16.869V1.77643C18.7234 0.52612 18.2686 0.0615234 17.0263 0.0615234Z" fill="currentColor" fill-opacity="currentOpacity"/>
<path d="M15.9944 15.2361L15.9877 15.2703L15.9809 15.3113L15.9741 15.3454L15.9605 15.3796L15.9537 15.4137L15.9401 15.4479L15.9266 15.4821L15.913 15.5094L15.8994 15.5436L15.879 15.5709L15.8587 15.5982L15.8383 15.6255L15.8179 15.6529L15.7976 15.6802L15.7704 15.7075L15.7501 15.728L15.7229 15.7554L15.6957 15.7759L15.6686 15.7964L15.6414 15.81L15.6143 15.8305L15.5803 15.851L15.5464 15.8647L15.5125 15.8852L15.4785 15.8988L15.4446 15.9125L15.4106 15.9262V15.9193L15.3767 15.933L15.3427 15.9398L15.2816 15.9535L15.2477 15.9603L15.2138 15.9672L15.1798 15.974L15.1459 15.9808L15.1051 15.9877L15.0712 15.9945H14.9354L14.9015 15.9877H14.8608L14.8268 15.9808L14.7929 15.974L14.7521 15.9672L14.7182 15.9603L14.6842 15.9535L14.6503 15.9467L14.6164 15.9398L14.5824 15.933L14.5485 15.9262L14.5145 15.9125L14.4806 15.9057L14.4467 15.892L14.4127 15.8783L14.3788 15.8647L14.3448 15.851L14.3109 15.8373L14.2769 15.8237L14.243 15.81L14.2091 15.7964L14.1751 15.7827L14.1412 15.769L14.1072 15.7485L14.0801 15.728L14.0461 15.7075L14.019 15.687L13.9918 15.6665L13.9647 15.646L13.9375 15.6255L13.9104 15.605L13.8832 15.5846L13.856 15.5641L13.8289 15.5367L13.8493 15.5094L13.8764 15.4821L13.8968 15.4547L13.9239 15.4274L13.9443 15.4001L13.9647 15.3728L13.9918 15.3454L14.0122 15.3181L14.0393 15.2908L14.0597 15.2634L14.0869 15.2361L14.1072 15.2088L14.1276 15.1814L14.1547 15.1541L14.1751 15.1268L14.2023 15.0995L14.2226 15.0721L14.2498 15.0926L14.2837 15.1131L14.3109 15.1336L14.3448 15.1541L14.372 15.1746L14.4059 15.1951L14.4331 15.2156L14.467 15.2293L14.4942 15.2498L14.5281 15.2634L14.5621 15.2771L14.596 15.2908L14.6299 15.3044L14.6639 15.3181L14.6978 15.3318L14.7318 15.3454L14.7657 15.3591L14.7997 15.3659L14.8675 15.3796L14.9083 15.3864L14.9422 15.3932H14.9762L15.0169 15.4001H15.0916L15.1323 15.3932L15.1662 15.3864L15.2002 15.3796L15.2341 15.3728L15.2613 15.3591L15.2884 15.3454L15.3156 15.3249L15.336 15.2976L15.3495 15.2703L15.3631 15.2361L15.3699 15.2019V15.1951L15.3631 15.1541L15.3495 15.12L15.3292 15.0926L15.302 15.0721L15.2749 15.0516L15.2477 15.038L15.2138 15.0243L15.1798 15.0106L15.1391 14.9901L15.1119 14.9833L15.0848 14.9765L15.0508 14.9628L15.0169 14.956L14.9829 14.9423L14.949 14.9355L14.9083 14.9218L14.8743 14.915L14.8336 14.9013L14.7997 14.8945L14.7657 14.8808L14.7318 14.874L14.6978 14.8603L14.6639 14.8467L14.6299 14.8398L14.596 14.8262L14.5621 14.8125L14.5281 14.7988L14.4874 14.7852L14.4534 14.7715L14.4195 14.7578L14.3856 14.7442L14.3516 14.7237L14.3177 14.7032L14.2905 14.6827L14.2566 14.6622L14.2294 14.6417L14.2023 14.6212L14.1751 14.6007L14.148 14.5734L14.1208 14.546L14.1004 14.5187L14.0801 14.4914L14.0597 14.4641L14.0393 14.4367L14.019 14.4026L14.0054 14.3752L13.9918 14.3479L13.985 14.3137L13.9715 14.2864L13.9647 14.2523L13.9579 14.2181L13.9511 14.1839L13.9443 14.1498L13.9375 14.1088V14.0268L13.9443 13.9926L13.9511 13.9585L13.9579 13.9243L13.9647 13.8901L13.9715 13.856L13.985 13.8218L13.9918 13.7877L14.0054 13.7535L14.019 13.7193L14.0325 13.6852L14.0529 13.651L14.0733 13.6168L14.0936 13.5895L14.114 13.5622L14.1412 13.5349L14.1683 13.5075L14.1955 13.4802L14.2226 13.4529L14.2498 13.4324L14.2769 13.4119L14.3041 13.3914L14.3312 13.3709L14.3652 13.3504L14.3991 13.3367L14.4331 13.3162L14.467 13.3026L14.501 13.2889L14.5349 13.2752L14.5688 13.2616L14.596 13.2547L14.6299 13.2479L14.6639 13.2411L14.6978 13.2342L14.7318 13.2274L14.7657 13.2206L14.7997 13.2137L14.8336 13.2069L14.8675 13.2001H15.0169L15.0576 13.2069L15.0984 13.2137H15.1323L15.173 13.2206L15.207 13.2274L15.2477 13.2342L15.2816 13.2411L15.3156 13.2479L15.3495 13.2547L15.3835 13.2616L15.4174 13.2684L15.4514 13.2821L15.4853 13.2957L15.5192 13.3026L15.5532 13.3162L15.5871 13.3299L15.6211 13.3436L15.655 13.3572L15.689 13.3709L15.7229 13.3914L15.7501 13.405L15.784 13.4255L15.8179 13.446L15.8451 13.4665L15.879 13.487L15.9062 13.5075L15.9333 13.528L15.9605 13.5485L15.9877 13.569L15.9673 13.5964L15.9469 13.6237L15.9266 13.651L15.9062 13.6783L15.8858 13.7125L15.8655 13.7398L15.8451 13.7672L15.8247 13.7945L15.8044 13.8218L15.784 13.8491L15.7636 13.8765L15.7433 13.9038L15.7229 13.938L15.7025 13.9653L15.6822 13.9926L15.6143 14.1429L15.5939 14.1703L15.5668 14.1498L15.5328 14.1293L15.5057 14.1088L15.4785 14.0883L15.4446 14.0746L15.4174 14.0541L15.3835 14.0405L15.3563 14.0268L15.3224 14.0131L15.2952 13.9995L15.2613 13.9858L15.2341 13.9721L15.1934 13.9585L15.1594 13.9448L15.1255 13.9311L15.0916 13.9243L15.0712 13.938L15.0373 13.9311L15.0033 13.9243L14.9694 13.9175L14.9354 13.9106H14.8608L14.82 13.9175L14.7861 13.9243L14.7521 13.9311L14.725 13.9448L14.6978 13.9585L14.6639 13.9858L14.6435 14.02L14.6299 14.0541L14.6232 14.0883V14.0951L14.6299 14.1429L14.6435 14.1839L14.6571 14.2044L14.6842 14.2318L14.7182 14.2523L14.7453 14.2727L14.7793 14.2864L14.82 14.3001L14.8608 14.3137L14.8879 14.3206L14.9151 14.3342L14.949 14.3411L14.9829 14.3547L15.0169 14.3616L15.0576 14.3752L15.0984 14.3889L15.1391 14.4026L15.1798 14.4094L15.2138 14.4231L15.2545 14.4367L15.2884 14.4436L15.3224 14.4572L15.3563 14.4709L15.3903 14.4846L15.4242 14.4982L15.4581 14.5119L15.4921 14.5187L15.5328 14.5324L15.5668 14.5529L15.6007 14.5665L15.6346 14.587L15.6686 14.6075L15.7025 14.628L15.7297 14.6485L15.7568 14.669L15.784 14.6895L15.8111 14.7168L15.8383 14.7442L15.8655 14.7715L15.8926 14.7988L15.913 14.8262L15.9333 14.8603L15.9537 14.8877L15.9741 14.9218L15.9877 14.9491L16.0012 14.9833L16.008 15.0175L16.0148 15.0516L16.0284 15.12L16.0352 15.1541L16.042 15.1951V15.2771L15.9944 15.2361ZM13.5845 15.933H11.609V13.3982H13.5981V13.9721H12.2675V14.3889H13.4623V14.9287H12.2675V15.3591H13.6184V15.933H13.5845ZM11.066 15.933H10.4346V14.4367L10.4143 14.4641L10.3939 14.4982L10.3735 14.5255L10.3532 14.5529L10.3328 14.587L10.3124 14.6144L10.2921 14.6417L10.2717 14.6759L10.2513 14.7032L10.231 14.7305L10.2106 14.7578L10.1902 14.792L10.1699 14.8193L10.1495 14.8467L10.1291 14.8808L10.1088 14.9082L10.0884 14.9355L10.068 14.9696L10.0545 14.997L10.0341 15.0243L10.0137 15.0585L9.99336 15.0858L9.973 15.1131L9.95263 15.1473L9.93227 15.1746L9.91869 15.2019L9.89832 15.2293L9.87796 15.2634L9.85759 15.2908L9.83723 15.3181L9.82365 15.3523L9.80328 15.3796L9.78292 15.4069L9.76255 15.4411L9.74219 15.4684H9.72861L9.70824 15.4342L9.68788 15.4069L9.66751 15.3728L9.64715 15.3454L9.62678 15.3113L9.60642 15.2839L9.58605 15.2498L9.56568 15.2224L9.54532 15.1883L9.53174 15.1609L9.51138 15.1268L9.49101 15.0995L9.47064 15.0653L9.50459 15.0311L9.48422 14.997L9.46386 14.9696L9.44349 14.9355L9.42313 14.9082L9.40276 14.874L9.38239 14.8467L9.36882 14.8262L9.34845 14.7988L9.32808 14.7647L9.30772 14.7373L9.28735 14.7032L9.26699 14.6759L9.24662 14.6417L9.23305 14.6212L9.21268 14.587L9.19231 14.5597L9.17195 14.5255L9.15158 14.4982L9.13122 14.4641L9.11085 14.4367V15.9262H8.45915V13.3914H9.16516L9.18553 13.4187L9.20589 13.4529L9.22626 13.4802L9.24662 13.5144L9.26699 13.5417L9.28735 13.5759L9.30772 13.6032L9.32808 13.6373L9.34845 13.6647L9.36882 13.692L9.38918 13.7262L9.40955 13.7535L9.42991 13.7877L9.45028 13.815L9.47064 13.8491L9.49101 13.8765L9.51138 13.9038L9.53174 13.938L9.55211 13.9653L9.57247 13.9995L9.59284 14.0268L9.6132 14.0609L9.63357 14.0883L9.64715 14.1224L9.66751 14.1498L9.68109 14.1771L9.70146 14.2113L9.72182 14.2386L9.74219 14.2727L9.76255 14.3001L9.77613 14.3342L9.7965 14.3616L9.81686 14.3957L9.83723 14.4231L9.85759 14.3957L9.87796 14.3616L9.89832 14.3342L9.91869 14.3001L9.93905 14.2727L9.95942 14.2386L9.97979 14.2113L10.0002 14.1771L10.0205 14.1498L10.0341 14.1224L10.0545 14.0883L10.0748 14.0609L10.0952 14.0268L10.1156 13.9995L10.1359 13.9653L10.1563 13.938L10.1767 13.9038L10.197 13.8765L10.2174 13.8491L10.2378 13.815L10.2581 13.7877L10.2785 13.7535L10.2988 13.7262L10.3192 13.692L10.3328 13.6647L10.3532 13.6373L10.3735 13.6032L10.3939 13.5759L10.4143 13.5417L10.4346 13.5144L10.455 13.4802L10.4753 13.4529L10.4957 13.4187L10.5161 13.3914H11.2221V15.9262L11.066 15.933ZM7.07429 14.8877L7.06071 14.8535L7.04713 14.8193L7.03356 14.7852L7.01998 14.751L7.0064 14.7168L6.99282 14.6827L6.97925 14.6485L6.96567 14.6144L6.95209 14.5802L6.93852 14.546L6.92494 14.5119L6.91136 14.4777L6.89778 14.4436L6.88421 14.4094L6.87063 14.3752L6.85705 14.3411L6.84348 14.3069L6.8299 14.2727L6.81632 14.2386L6.80275 14.2044L6.78917 14.1703L6.77559 14.1361L6.76201 14.1703L6.74844 14.2044L6.73486 14.2386L6.72128 14.2727L6.70771 14.3069L6.69413 14.3411L6.68055 14.3752L6.66697 14.4094L6.6534 14.4436L6.63982 14.4777L6.62624 14.5119L6.61267 14.546L6.59909 14.5802L6.58551 14.6144L6.57193 14.6485L6.55836 14.6827L6.54478 14.7168L6.5312 14.751L6.51763 14.7852L6.50405 14.8193L6.49047 14.8535L6.4769 14.8877L6.46332 14.9218H7.04713L7.07429 14.8877ZM8.15367 15.933H7.4816L7.46802 15.8988L7.45445 15.8647L7.44087 15.8305L7.42729 15.7964L7.41371 15.7622L7.40014 15.728L7.38656 15.6939L7.37298 15.6597L7.35941 15.6255L7.34583 15.5914L7.33225 15.5572L7.31868 15.5231L7.3051 15.4889L7.29152 15.4547L7.27794 15.4206H6.30039L6.28682 15.4547L6.27324 15.4889L6.25966 15.5231L6.24608 15.5572L6.23251 15.5914L6.20535 15.6529L6.19178 15.687L6.1782 15.7212L6.16462 15.7554L6.15104 15.7895L6.13747 15.8237L6.12389 15.8578L6.11031 15.892L6.09674 15.9262H5.41788L5.43146 15.892L5.45861 15.8305L5.47219 15.7964L5.48577 15.7622L5.51292 15.7007L5.5265 15.6665L5.54008 15.6324L5.55365 15.5982L5.56723 15.5777L5.58081 15.5436L5.59438 15.5094L5.60796 15.4752L5.62154 15.4411L5.63512 15.4069L5.64869 15.3728L5.66227 15.3386L5.67585 15.3044L5.68942 15.2703L5.703 15.2361L5.71658 15.2019L5.74373 15.1405L5.75731 15.1063L5.77089 15.0721L5.78446 15.038L5.79804 15.0038L5.81162 14.9696L5.82519 14.9355L5.83877 14.9013L5.85235 14.8672L5.86593 14.833L5.8795 14.7988L5.89308 14.7647L5.90666 14.7305L5.92023 14.6964L5.93381 14.6622L5.94739 14.628L5.96097 14.5939L5.97454 14.5597L5.98812 14.5255L6.0017 14.4914L6.01527 14.4572L6.02885 14.4231L6.04243 14.3889L6.056 14.3547L6.06958 14.3206L6.08316 14.2864L6.09674 14.2523L6.11031 14.2181L6.12389 14.1839L6.13747 14.1498L6.15104 14.1156L6.16462 14.0814L6.1782 14.0473L6.20535 13.9858L6.21893 13.9516L6.23251 13.9175L6.24608 13.8833L6.25966 13.8491L6.27324 13.815L6.28682 13.7808L6.30039 13.7467L6.31397 13.7125L6.32755 13.6783L6.34112 13.6442L6.34791 13.61L6.36149 13.5759L6.37507 13.5417L6.38864 13.5075L6.40222 13.4734L6.4158 13.4392L6.42937 13.405L6.44295 13.3709L6.45653 13.3367L6.48368 13.2752L6.49726 13.2411H7.13538L7.14896 13.2752L7.16254 13.3094L7.17612 13.3436L7.18969 13.3777L7.20327 13.4119L7.21685 13.446L7.23042 13.4802L7.244 13.5144L7.25758 13.5485L7.27115 13.5827L7.28473 13.6168L7.29831 13.651L7.31189 13.6852L7.32546 13.7193L7.33904 13.7535L7.35262 13.7877L7.36619 13.8218L7.37977 13.856L7.39335 13.8901L7.40693 13.9243L7.4205 13.9585L7.43408 13.9926L7.44766 14.0268L7.46123 14.0609L7.47481 14.0951L7.48839 14.1293L7.50197 14.1634L7.51554 14.1976L7.52912 14.2318L7.5427 14.2659L7.56985 14.3274L7.58343 14.3616L7.59701 14.3957L7.61058 14.4299L7.62416 14.4641L7.63774 14.4982L7.65131 14.5324L7.66489 14.5665L7.67847 14.6007L7.69205 14.6349L7.70562 14.669L7.7192 14.7032L7.73278 14.7373L7.74635 14.7715L7.75993 14.8057L7.77351 14.8398L7.78708 14.874L7.80066 14.9082L7.81424 14.9423L7.82782 14.9765L7.84139 15.0106L7.85497 15.0448L7.86855 15.079L7.88212 15.1131L7.8957 15.1473L7.90928 15.1814L7.92286 15.2156L7.93643 15.2498L7.95001 15.2839L7.96359 15.3181L7.97716 15.3523L7.99074 15.3864L8.00432 15.4206L8.0179 15.4547L8.03147 15.4889L8.04505 15.5231L8.05863 15.5572L8.0722 15.5914L8.08578 15.6255L8.09936 15.6597L8.11294 15.6939L8.12651 15.728L8.14009 15.7622L8.15367 15.7964L8.16724 15.8305L8.18082 15.8647L8.1944 15.8988L8.22155 15.9603L8.15367 15.933ZM5.13955 15.605L5.1124 15.6255L5.08524 15.646L5.05809 15.6665L5.03093 15.687L5.00378 15.7075L4.97663 15.728L4.94947 15.7485L4.91553 15.769L4.88159 15.7895L4.84764 15.81L4.8137 15.8237L4.77976 15.8442L4.74582 15.8578L4.71187 15.8715L4.67793 15.8852L4.64399 15.8988L4.61004 15.9125L4.5761 15.9262L4.54216 15.9398L4.50822 15.9535L4.47427 15.9672L4.44033 15.974L4.40639 15.9808L4.37245 15.9877L4.3385 15.9945L4.30456 16.0013L4.26383 16.0082L4.22989 16.015L4.18915 16.0218L4.15521 16.0287L4.11448 16.0355H4.00586L3.97192 16.0287L3.93119 16.0218L3.89725 16.015L3.8633 16.0082L3.82936 16.0013L3.79542 15.9945L3.76148 15.9877L3.72753 15.9808L3.69359 15.974L3.65965 15.9672L3.6257 15.9603L3.59176 15.9467L3.55782 15.933L3.52388 15.9193L3.48993 15.9057L3.45599 15.892L3.42205 15.8783L3.38811 15.8647L3.35416 15.8442L3.32701 15.8305L3.29307 15.81L3.26591 15.7895L3.23876 15.769L3.2116 15.7485L3.18445 15.728L3.1573 15.7075L3.13014 15.687L3.10299 15.6665L3.07583 15.6392L3.04868 15.6187L3.02152 15.5914L2.99437 15.5641L2.974 15.5367L2.95364 15.5094L2.93327 15.4821L2.91291 15.4547L2.89254 15.4274L2.87218 15.4001L2.8586 15.3728L2.83823 15.3386L2.81787 15.3113L2.80429 15.2771L2.79071 15.2429L2.77714 15.2088L2.76356 15.1746L2.74998 15.1473L2.73641 15.1131L2.72962 15.079L2.71604 15.0448L2.70925 15.0106L2.69567 14.9765L2.68889 14.9423V14.9082L2.6821 14.874V14.8398L2.67531 14.8057V14.5119L2.6821 14.4709L2.68889 14.4367L2.69567 14.4026L2.70246 14.3684L2.71604 14.3342L2.72283 14.3001L2.73641 14.2659L2.74998 14.2318L2.76356 14.1976L2.77714 14.1634L2.79071 14.1293L2.80429 14.0951L2.81787 14.0609L2.83144 14.0268L2.85181 13.9926L2.87218 13.9653L2.88575 13.938L2.90612 13.9106L2.92648 13.8833L2.94685 13.856L2.96722 13.8287L2.98758 13.8013L3.00795 13.774L3.0351 13.7467L3.05547 13.7193L3.08262 13.692L3.10978 13.6647L3.13693 13.6442L3.16408 13.6168L3.19124 13.5964L3.21839 13.5759L3.24555 13.5554L3.2727 13.5349L3.29985 13.5144L3.32701 13.4939L3.36095 13.4734L3.39489 13.4529L3.42884 13.4324L3.46278 13.4187L3.49672 13.405L3.53067 13.3846L3.55782 13.3709L3.59176 13.3572L3.6257 13.3436L3.65965 13.3367L3.69359 13.3231L3.72753 13.3162L3.76148 13.3026L3.79542 13.2957L3.82936 13.2889L3.8633 13.2821L3.89725 13.2752L3.93119 13.2684L3.96513 13.2616L3.99908 13.2547H4.14163L4.18237 13.2616L4.2231 13.2684H4.25704L4.29098 13.2752L4.33171 13.2821L4.36566 13.2889L4.3996 13.2957L4.43354 13.3026L4.46749 13.3094L4.50143 13.3162L4.53537 13.3231L4.56931 13.3367L4.60326 13.3436L4.63041 13.3572L4.66435 13.3709L4.72545 13.3982L4.75939 13.4119L4.79333 13.4324L4.82728 13.446L4.85443 13.4665L4.88837 13.487L4.91553 13.5075L4.94947 13.528L4.97663 13.5485L5.00378 13.569L5.03093 13.5895L5.05809 13.61L5.08524 13.6373L5.1124 13.6578L5.09203 13.6852L5.06488 13.7125L5.04451 13.7398L5.01736 13.7672L4.99699 13.7945L4.97663 13.8218L4.94947 13.8491L4.92911 13.8765L4.90874 13.9038L4.88159 13.9311L4.86122 13.9585L4.83407 13.9858L4.8137 14.0131L4.79333 14.0405L4.76618 14.0678L4.74582 14.0951L4.71866 14.1224L4.6983 14.1498L4.67114 14.1293L4.64399 14.1019L4.61683 14.0814L4.58968 14.0609L4.56252 14.0405L4.53537 14.02L4.50822 13.9995L4.47427 13.979L4.44712 13.9653L4.41996 13.9516L4.39281 13.938L4.35887 13.9243L4.32493 13.9106L4.29098 13.9038L4.25704 13.897L4.2231 13.8901L4.18915 13.8833L4.14842 13.8765L4.10769 13.8696H4.03302L3.99908 13.8765L3.96513 13.8833L3.93119 13.8901L3.89725 13.897L3.8633 13.9106L3.82936 13.9243L3.80221 14.0063L3.76826 14.02L3.74111 14.0405L3.71396 14.0609L3.6868 14.0814L3.65965 14.1019L3.63249 14.1224L3.60534 14.1429L3.58497 14.1703L3.55782 14.1976L3.53745 14.2249L3.51709 14.2523L3.49672 14.2796L3.48315 14.3137L3.46278 14.3411L3.4492 14.3752L3.43563 14.4094L3.42205 14.4436L3.40847 14.4777L3.40168 14.5119L3.39489 14.546L3.38811 14.587V14.8398L3.39489 14.874L3.40168 14.9082L3.40847 14.9423L3.42205 14.9765L3.46278 14.9628L3.47636 14.997L3.48993 15.0311L3.5103 15.0653L3.54424 15.12L3.56461 15.1473L3.58497 15.1746L3.61213 15.2019L3.63249 15.2293L3.65965 15.2498L3.6868 15.2703L3.71396 15.2908L3.74111 15.3113L3.76826 15.3318L3.80221 15.3454L3.83615 15.3591L3.87009 15.3728L3.90404 15.3864L3.93798 15.4001L3.97192 15.4069L4.00586 15.4137L4.03981 15.4206L4.08054 15.4274H4.14163L4.18237 15.4206L4.2231 15.4137L4.25704 15.4069L4.29098 15.4001L4.32493 15.3932L4.35887 15.3864L4.39281 15.3796L4.42675 15.3659L4.45391 15.3523L4.48785 15.3386L4.515 15.3249L4.54216 15.3044V14.9628H4.03981V14.4572H5.15992V15.5914L5.13955 15.605ZM4.03302 7.66592H5.5265V6.50443H4.03302V4.13362H5.5876V2.97213H2.76356V11.3554H5.60796V10.1939H4.03302V7.66592ZM14.7182 7.91871V9.81126C14.7182 10.146 14.5621 10.3032 14.243 10.3032H14.0054C13.6728 10.3032 13.5166 10.146 13.5166 9.81126V4.51623C13.5166 4.18144 13.6728 4.0243 14.0054 4.0243H14.2158C14.5349 4.0243 14.691 4.18144 14.691 4.51623V6.15598H15.9333V4.44107C15.9333 3.40256 15.4378 2.89697 14.4059 2.89697H13.7882C12.7563 2.89697 12.2472 3.40939 12.2472 4.45474V9.86592C12.2472 10.9113 12.7563 11.4237 13.7882 11.4237H14.4127C15.4446 11.4237 15.9537 10.9113 15.9537 9.86592V7.91188H14.7182M10.3192 2.97213H11.5887V11.3554H10.3192V2.97213ZM8.47952 6.69573C8.47952 7.03051 8.32338 7.18766 8.00432 7.18766H7.4816V4.09946H8.00432C8.32338 4.09946 8.47952 4.2566 8.47952 4.59138V6.69573ZM8.20797 2.97213H6.21893V11.3554H7.48839V8.31499H8.20797C9.23983 8.31499 9.74898 7.80256 9.74898 6.75722V4.52989C9.74898 3.48455 9.23983 2.97213 8.20797 2.97213ZM5.75052 18.9324H13.0075L9.30772 20.1622L5.75052 18.9324Z" fill="#00050D"/>
</g>
<defs>
<clipPath id="clip0_1_191">
<rect width="18.7376" height="22" fill="white"/>
</clipPath>
</defs>
</svg>
