<svg width="1779" height="2001" viewBox="0 0 1779 2001" fill="none" xmlns="http://www.w3.org/2000/svg">
<path fill-rule="evenodd" clip-rule="evenodd" d="M1633.25 541.137L915.338 126.653C899.463 117.487 879.904 117.487 864.029 126.653L146.12 541.137C130.245 550.303 120.466 567.241 120.466 585.572V1414.54C120.466 1432.87 130.245 1449.81 146.12 1458.98L864.029 1873.46C879.904 1882.63 899.463 1882.63 915.338 1873.46L1633.25 1458.98C1649.12 1449.81 1658.9 1432.87 1658.9 1414.54V585.572C1658.9 567.241 1649.12 550.303 1633.25 541.137ZM975.199 22.9709C922.282 -7.58078 857.085 -7.5808 804.168 22.9709L86.2594 437.456C33.3424 468.007 0.744141 524.469 0.744141 585.572V1414.54C0.744141 1475.65 33.3423 1532.11 86.2594 1562.66L804.168 1977.14C857.085 2007.7 922.282 2007.7 975.199 1977.14L1693.11 1562.66C1746.02 1532.11 1778.62 1475.65 1778.62 1414.54V585.572C1778.62 524.469 1746.02 468.007 1693.11 437.456L975.199 22.9709Z" fill="white"/>
<path fill-rule="evenodd" clip-rule="evenodd" d="M1619.11 1373.65L930.364 180.709C910.615 146.502 861.243 146.502 841.494 180.708L152.751 1373.65C133.002 1407.85 157.688 1450.61 197.186 1450.61H1574.67C1614.17 1450.61 1638.86 1407.85 1619.11 1373.65ZM1034.05 120.848C968.216 6.82745 803.642 6.8274 737.813 120.848L49.0693 1313.79C-16.7604 1427.81 65.5267 1570.33 197.186 1570.33H1574.67C1706.33 1570.33 1788.62 1427.81 1722.79 1313.79L1034.05 120.848Z" fill="white"/>
</svg>