<svg width="20" height="20" viewBox="0 0 20 20" fill="none" xmlns="http://www.w3.org/2000/svg">
<path d="M10.3837 0C7.94735 0 5.87836 1.47869 4.91677 3.63636H4.85605L4.72785 4.11222C4.67094 4.27291 4.6191 4.43549 4.57435 4.60227C4.56883 4.62029 4.56109 4.63741 4.5558 4.65554L1.4015 1.99929L0.365811 3.45526L2.69695 5.45455H0.0200195V7.27273H4.39555C4.43139 7.56261 4.48853 7.8451 4.57098 8.11612C4.61631 8.28604 4.6699 8.45145 4.72785 8.61506L4.85605 9.09091H4.91677C5.37984 10.13 6.0944 11.0139 6.98983 11.6477C3.91503 13.043 1.74729 16.2669 1.74729 20H3.47457C3.47457 16 6.58366 12.7273 10.3837 12.7273C14.1837 12.7273 17.2927 16 17.2927 20H19.02C19.02 16.2666 16.8526 13.0411 13.7775 11.646C14.672 11.0122 15.3878 10.1292 15.8505 9.09091H15.9113L15.9366 8.90092C16.2527 8.12517 16.4291 7.26908 16.4291 6.36364C16.4291 2.81818 13.7518 0 10.3837 0ZM10.3837 1.81818C11.8181 1.81818 13.0585 2.53241 13.8399 3.63636H6.92742C7.70877 2.53241 8.94917 1.81818 10.3837 1.81818ZM6.1515 5.45455H14.6158C14.6247 5.48275 14.6238 5.5187 14.631 5.54865C14.6749 5.81282 14.7018 6.08443 14.7018 6.36364C14.7018 6.64285 14.6749 6.91446 14.631 7.17862C14.6238 7.20857 14.6247 7.24452 14.6158 7.27273H6.1515C6.14257 7.24452 6.1435 7.20857 6.13632 7.17862C6.09242 6.91446 6.06547 6.64285 6.06547 6.36364C6.06547 6.08443 6.09242 5.81282 6.13632 5.54865C6.1435 5.5187 6.14257 5.48275 6.1515 5.45455ZM6.92742 9.09091H13.8399C13.0585 10.1949 11.8181 10.9091 10.3837 10.9091C8.94917 10.9091 7.70877 10.1949 6.92742 9.09091Z" fill="#FF2445"/>
</svg>
