<svg width="22" height="22" viewBox="0 0 22 22" fill="currentColor" xmlns="http://www.w3.org/2000/svg">
<g clip-path="url(#clip0_1_196)">
<path d="M10.8553 0.000244141C5.13289 0.000244141 0.445156 4.45215 0 10.1094L5.83834 12.545C6.34814 12.1921 6.95359 12.0035 7.5736 12.0042C7.63154 12.0042 7.6888 12.0058 7.74521 12.009L10.3419 8.21129V8.15811C10.3419 5.87295 12.1845 4.01335 14.4497 4.01335C16.7147 4.01335 18.5573 5.87295 18.5573 8.15811C18.5573 10.4432 16.7147 12.3036 14.4497 12.3036C14.4182 12.3036 14.3876 12.3028 14.3564 12.302L10.653 14.9672C10.6554 15.0166 10.6569 15.066 10.6569 15.1146C10.6569 16.8307 9.27361 18.2265 7.5736 18.2265C6.08131 18.2265 4.83275 17.1513 4.55062 15.7282L0.374645 13.9861C1.66789 18.5994 5.86884 21.9817 10.8553 21.9817C16.8715 21.9817 21.7481 17.0604 21.7481 10.991C21.7481 4.92086 16.8715 0.000244141 10.8553 0.000244141ZM6.82618 16.6768L5.48825 16.1189C5.72502 16.6173 6.13568 17.0342 6.6804 17.2631C7.8576 17.7583 9.21507 17.1949 9.70577 16.006C9.94332 15.4344 9.94473 14.792 9.70967 14.2193C9.47452 13.6426 9.03013 13.1927 8.46035 12.9529C7.89371 12.7155 7.28706 12.7241 6.75406 12.9271L8.13667 13.5039C9.00507 13.8691 9.41573 14.8752 9.05366 15.7514C8.69236 16.6275 7.69458 17.0421 6.82618 16.6768ZM17.1869 8.15811C17.1869 6.63555 15.9587 5.39584 14.4499 5.39584C12.9404 5.39584 11.7122 6.63555 11.7122 8.15811C11.7122 9.68076 12.9404 10.9197 14.4499 10.9197C15.9587 10.9197 17.1869 9.68076 17.1869 8.15811ZM12.398 8.15344C12.398 7.00776 13.3189 6.07919 14.4539 6.07919C15.5896 6.07919 16.5105 7.00776 16.5105 8.15344C16.5105 9.29912 15.5896 10.2278 14.4538 10.2278C13.3189 10.2278 12.3979 9.29912 12.3979 8.15353L12.398 8.15344Z" fill="currentColor" fill-opacity="currentOpacity"/>
</g>
<defs>
<clipPath id="clip0_1_196">
<rect width="21.7481" height="22" fill="white"/>
</clipPath>
</defs>
</svg>
