<svg width="22" height="22" viewBox="0 0 22 22" fill="none" xmlns="http://www.w3.org/2000/svg">
<g clip-path="url(#clip0_1_328)">
<path d="M6.02944 14.1915C4.73257 14.9637 1.33225 16.5404 3.40327 18.5136C4.41495 19.4773 5.5417 20.1667 6.9583 20.1667H15.0417C16.4583 20.1667 17.5851 19.4773 18.5967 18.5136C20.6677 16.5404 17.2674 14.9637 15.9705 14.1915C12.9294 12.3806 9.07059 12.3806 6.02944 14.1915Z" stroke="white" stroke-opacity="0.8" stroke-width="1.25" stroke-linecap="round" stroke-linejoin="round"/>
<path d="M15.125 5.95833C15.125 8.23651 13.2782 10.0833 11 10.0833C8.72183 10.0833 6.875 8.23651 6.875 5.95833C6.875 3.68016 8.72183 1.83333 11 1.83333C13.2782 1.83333 15.125 3.68016 15.125 5.95833Z" stroke="white" stroke-opacity="0.8" stroke-width="1.25"/>
</g>
<defs>
<clipPath id="clip0_1_328">
<rect width="22" height="22" fill="white"/>
</clipPath>
</defs>
</svg>
