<svg xmlns="http://www.w3.org/2000/svg" width="29" height="25" viewBox="0 0 29 25" fill="none">
<g clip-path="url(#clip0_447_1024)">
<path d="M21.1318 17.6417C21.0302 17.0763 20.8999 16.5422 20.7431 16.0535C20.6196 15.6683 20.4624 15.287 20.274 14.9155C20.2154 14.8003 20.1544 14.6855 20.0899 14.5728C19.899 14.2369 19.6852 13.9312 19.4523 13.6583C19.341 13.528 19.2258 13.4045 19.1057 13.2897C18.717 12.9182 18.2415 12.6194 17.6918 12.4012C17.1435 12.1844 16.5362 12.0746 15.8864 12.0746C15.631 12.0746 15.3845 12.179 14.908 12.4895L14.2933 12.886L13.8886 13.1467C13.6054 13.3273 13.2344 13.4977 12.7847 13.6554L12.5694 13.7281C12.0412 13.899 11.5056 13.9864 10.9759 13.9884H10.9564C10.4208 13.9884 9.8779 13.9005 9.3433 13.7277L9.13678 13.6583C8.68372 13.5001 8.31024 13.3288 8.02561 13.1467L7.00524 12.489C6.52923 12.1785 6.28219 12.0741 6.02734 12.0741C5.37752 12.0741 4.77018 12.1839 4.2224 12.4012C3.67267 12.6189 3.19715 12.9177 2.80804 13.2897C2.43651 13.6451 2.1055 14.0767 1.8238 14.5723C1.55235 15.0497 1.33266 15.5482 1.17106 16.0535C1.01483 16.5417 0.883986 17.0763 0.782925 17.6412C0.682353 18.2017 0.614002 18.7328 0.580316 19.2211C0.547117 19.6985 0.530518 20.195 0.530518 20.6969C0.530518 22.0019 0.945501 23.0579 1.76326 23.8371C2.57126 24.6061 3.63996 24.9957 4.94008 24.9957H16.9761C18.2757 24.9957 19.3444 24.6061 20.1524 23.8371C20.2549 23.7395 20.3516 23.6375 20.4414 23.531C21.0683 22.7894 21.3851 21.8384 21.3851 20.6969C21.3854 20.2044 21.3687 19.712 21.3349 19.2206C21.3012 18.7333 21.2323 18.2026 21.1318 17.6417ZM11.615 23.532H4.93959C4.0154 23.532 3.30651 23.285 2.77289 22.7772C2.24953 22.2787 1.99516 21.5987 1.99516 20.6979C1.99516 20.2297 2.01079 19.7669 2.04155 19.3231C2.07181 18.8876 2.13333 18.4092 2.22463 17.9004C2.31495 17.3981 2.42968 16.9269 2.56589 16.5007C2.69673 16.0916 2.87542 15.6864 3.09707 15.2963C3.30847 14.9243 3.55208 14.6055 3.8206 14.3482C4.07203 14.1075 4.3884 13.9107 4.76139 13.7633C5.10656 13.6266 5.49421 13.5519 5.91505 13.5407C5.96631 13.568 6.05761 13.6202 6.20554 13.7164L7.23763 14.3814C7.53837 14.5732 7.89916 14.7519 8.31512 14.915C8.49722 14.9868 8.69007 15.0556 8.89317 15.121C9.17353 15.2116 9.45939 15.2842 9.74901 15.3383C10.1508 15.4139 10.5546 15.453 10.9569 15.453C11.6457 15.453 12.3405 15.3412 13.0205 15.1215C13.5049 14.9648 13.9311 14.7905 14.2948 14.6011C14.431 14.5298 14.5589 14.4566 14.6771 14.3814L15.7082 13.7164L15.8039 13.6554C15.8971 13.5968 15.9596 13.5617 15.9987 13.5407C16.4195 13.5519 16.8076 13.6266 17.1528 13.7633C17.3178 13.8287 17.4711 13.9039 17.6132 13.9884C17.7924 14.0943 17.9535 14.2144 18.0936 14.3482C18.3621 14.605 18.6052 14.9243 18.8171 15.2963L18.8406 15.3388C19.0515 15.7157 19.2228 16.1062 19.3488 16.5002C19.4855 16.9274 19.6007 17.3985 19.6905 17.8999C19.7818 18.4092 19.8434 18.8881 19.8736 19.3231C19.9049 19.7659 19.9205 20.2278 19.9205 20.6979C19.9205 21.5987 19.6661 22.2787 19.1423 22.7767C18.6087 23.285 17.8998 23.532 16.9756 23.532H11.615ZM10.7996 12.0409C12.0431 12.0409 13.1616 11.7055 14.1376 11.0415C14.4598 10.8223 14.7664 10.5674 15.0569 10.2769C15.1364 10.1973 15.2138 10.1158 15.2893 10.0323C16.3057 8.90896 16.8208 7.561 16.8208 6.02019C16.8208 4.47938 16.3057 3.13142 15.2893 2.00803C15.2146 1.92552 15.137 1.8435 15.0569 1.76344C14.7664 1.47295 14.4598 1.2181 14.1376 0.999378C13.1616 0.335404 12.0431 0 10.7996 0C9.14509 0 7.71315 0.593182 6.54289 1.76344C5.37264 2.93369 4.77897 4.36611 4.77897 6.02019C4.77897 7.67426 5.37264 9.10669 6.54289 10.2774C7.71364 11.4477 9.14606 12.0409 10.7996 12.0409ZM7.57889 2.79943C8.47672 1.90111 9.53029 1.46465 10.7996 1.46465C11.6116 1.46465 12.3346 1.64431 12.9859 2.00803C13.3525 2.21308 13.6972 2.47574 14.0209 2.79943C14.0609 2.83946 14.099 2.88047 14.1376 2.92148C14.9563 3.79295 15.3557 4.80844 15.3557 6.02068C15.3557 7.23292 14.9563 8.24841 14.1376 9.11987L14.0209 9.24192C13.6972 9.56561 13.353 9.82827 12.9859 10.0333C12.3346 10.397 11.6116 10.5767 10.7996 10.5767C9.53078 10.5767 8.47721 10.1398 7.57889 9.24192C6.68057 8.3441 6.24411 7.29004 6.24411 6.02068C6.24411 4.75132 6.68106 3.69726 7.57889 2.79943ZM28.0097 19.2211C27.9761 18.7343 27.9077 18.2026 27.8071 17.6417C27.7056 17.0763 27.5752 16.5422 27.4185 16.054C27.2569 15.5492 27.0372 15.0507 26.7658 14.5728C26.4841 14.0767 26.1531 13.6451 25.7815 13.2897C25.3929 12.9182 24.9174 12.6194 24.3672 12.4012C23.8194 12.1844 23.2116 12.0746 22.5622 12.0746C22.405 12.0746 22.2512 12.1146 22.0457 12.2171C22.2608 12.508 22.4583 12.8114 22.6374 13.1257C22.717 13.2658 22.7927 13.4079 22.8659 13.5509C23.2135 13.5773 23.5362 13.6481 23.8282 13.7633C24.2012 13.9112 24.5175 14.108 24.769 14.3482C25.0375 14.605 25.2806 14.9243 25.492 15.2963C25.7137 15.6864 25.8928 16.0916 26.0237 16.5002C26.1604 16.9274 26.2751 17.3985 26.3654 17.9004C26.4567 18.4096 26.5182 18.8886 26.5485 19.3231C26.5798 19.7659 26.5954 20.2282 26.5954 20.6979C26.5954 21.5987 26.3405 22.2787 25.8172 22.7767C25.5652 23.0169 25.2743 23.1985 24.9403 23.323C24.6059 23.448 24.2285 23.5159 23.8038 23.5291C23.5987 24.0534 23.3336 24.5441 23.0099 24.9966H23.6509C24.9506 24.9966 26.0193 24.607 26.8273 23.8381C27.6455 23.0599 28.06 22.0029 28.06 20.6979C28.06 20.1941 28.0429 19.6971 28.0097 19.2211ZM21.7318 1.76344C20.5615 0.593182 19.1291 0 17.475 0L17.4223 0.000488216C17.8758 0.496027 18.2654 1.02769 18.5886 1.59012C19.3786 1.77808 20.0743 2.17793 20.6958 2.79894C21.5936 3.69726 22.0306 4.75083 22.0306 6.0197C22.0306 7.28857 21.5936 8.34263 20.6958 9.24095C20.355 9.58172 19.9913 9.8561 19.6022 10.0651C20.0782 10.3223 20.5161 10.6255 20.9111 10.9722C21.1972 10.7691 21.4706 10.5372 21.7313 10.2765C22.9015 9.1062 23.4947 7.67426 23.4947 6.0197C23.4947 4.36514 22.9015 2.93369 21.7308 1.76295L21.7318 1.76344Z" fill="white"/>
</g>
<defs>
<clipPath id="clip0_447_1024">
<rect width="27.53" height="24.9966" fill="white" transform="translate(0.530029)"/>
</clipPath>
</defs>
</svg>