<svg width="32" height="22" viewBox="0 0 32 22" fill="none" xmlns="http://www.w3.org/2000/svg">
<path d="M1.86435 16.0387C0.801928 16.7484 1.15607 18.0968 3.42257 18.7355C5.7599 19.5161 8.30972 19.729 10.7887 19.3032C10.9304 19.3032 11.072 19.2323 11.1428 19.2323V16.8194L8.73469 17.6C7.81392 17.8839 6.89315 17.9548 5.97239 17.7419C5.2641 17.529 5.40576 17.1032 6.2557 16.7484L11.1428 15.0452V12.4194L4.34334 14.7613C3.4934 15.0452 2.64346 15.471 1.86435 16.0387ZM18.2965 5.39355V12.2774C21.2004 13.6968 23.467 12.2774 23.467 8.5871C23.467 4.82581 22.1212 3.12258 18.2257 1.77419C16.1716 1.06452 14.0468 0.425806 11.922 0V20.5097L16.8799 22V4.75484C16.8799 3.97419 16.8799 3.40645 17.4466 3.61935C18.2257 3.83226 18.2965 4.6129 18.2965 5.39355ZM27.5042 14.4065C25.4501 13.6968 23.2545 13.4129 21.1296 13.6258C19.9964 13.6968 18.9339 13.9806 17.9424 14.3355L17.7299 14.4065V17.1742L22.3337 15.471C23.2545 15.1871 24.1752 15.1161 25.096 15.329C25.8043 15.5419 25.6626 15.9677 24.8127 16.3226L17.7299 18.9484V21.6452L27.5042 18.0258C28.2124 17.7419 28.8499 17.3871 29.4165 16.8194C29.9123 16.1097 29.6998 15.1161 27.5042 14.4065Z" fill="white" fill-opacity="0.6"/>
</svg>
